<svg width="301" height="90" viewBox="0 0 301 90" fill="none" xmlns="http://www.w3.org/2000/svg">
<g clip-path="url(#clip0_558_19130)">
<path d="M123.76 62.7101C123.76 46.4401 136.07 36.0701 149.75 36.0701C163.43 36.0701 171.14 44.7101 173.15 52.9901L163.79 55.9401C162.57 51.0401 158.61 45.6401 149.75 45.6401C142.12 45.6401 134.05 51.1101 134.05 62.7101C134.05 73.5801 141.68 79.5601 149.89 79.5601C158.6 79.5601 162.85 73.8701 164.22 69.1201L173.51 71.9301C171.57 79.7801 164.22 89.2801 149.89 89.2801C135.56 89.2801 123.75 78.9801 123.75 62.7101H123.76Z" fill="#F1F2F3"/>
<path d="M176.2 88.2001V36.0701H185.78V88.2001H176.2Z" fill="#F1F2F3"/>
<path d="M226.04 70.4899C226.04 81.3599 218.05 89.2799 207.46 89.2799C196.87 89.2799 188.88 81.3599 188.88 70.4899C188.88 59.6199 196.87 51.7 207.46 51.7C218.05 51.7 226.04 59.5499 226.04 70.4899ZM216.46 70.4899C216.46 63.7899 212.14 60.41 207.46 60.41C202.78 60.41 198.46 63.7899 198.46 70.4899C198.46 77.1899 202.78 80.57 207.46 80.57C212.14 80.57 216.46 77.1899 216.46 70.4899Z" fill="#F1F2F3"/>
<path d="M251.96 84.39C250.02 87.7 245.91 89.14 242.17 89.14C233.6 89.14 228.7 82.87 228.7 75.17V52.78H238.28V73.23C238.28 77.19 240.3 80.36 244.76 80.36C249.22 80.36 251.46 77.48 251.46 73.38V52.79H261.04V81.81C261.04 84.55 261.26 87 261.4 88.22H252.26C252.12 87.5 251.97 85.84 251.97 84.4L251.96 84.39Z" fill="#F1F2F3"/>
<path d="M300.5 81.7901C300.5 84.1701 300.64 86.7601 300.79 88.2001H291.65C291.51 87.4801 291.29 85.7501 291.29 84.1001C289.71 86.9101 286.1 89.0701 281.35 89.0701C271.27 89.0701 264.07 81.1501 264.07 70.4201C264.07 59.6901 271.05 51.9201 281.06 51.9201C287.18 51.9201 290.06 54.4401 291.07 56.3101V36.0801H300.5V81.8001V81.7901ZM282.5 80.5001C287.4 80.5001 291.21 76.7501 291.21 70.3501C291.21 63.9501 287.39 60.4901 282.5 60.4901C277.61 60.4901 273.71 64.0901 273.71 70.4301C273.71 76.7701 277.45 80.5101 282.5 80.5101V80.5001Z" fill="#F1F2F3"/>
<path d="M18.8 8.3V36.2H10.9V8.3H0V0.75H29.75V8.3H18.8Z" fill="#F1F2F3"/>
<path d="M47.5301 0C57.4801 0 65.9301 7.25 65.9301 18.5C65.9301 29.75 57.4801 36.95 47.5301 36.95C37.5801 36.95 29.0801 29.7 29.0801 18.5C29.0801 7.3 37.5301 0 47.5301 0ZM47.5301 29.15C52.4301 29.15 57.7301 25.85 57.7301 18.45C57.7301 11.05 52.4301 7.7 47.5301 7.7C42.6301 7.7 37.2801 11.05 37.2801 18.45C37.2801 25.85 42.5801 29.15 47.5301 29.15Z" fill="#F1F2F3"/>
<path d="M79.8101 23H77.0101V36.2H69.1101V0.75H83.1601C90.1601 0.75 94.6601 5.55 94.6601 11.85C94.6601 16.65 92.0101 20.3 87.6601 21.85L94.8601 36.2H86.1601L79.8101 23ZM81.6601 16.2C84.9101 16.2 86.6601 14.4 86.6601 11.9C86.6601 9.25 84.9101 7.6 81.6601 7.6H77.0101V16.2H81.6601Z" fill="#F1F2F3"/>
<path d="M114.02 0C123.97 0 132.42 7.25 132.42 18.5C132.42 23.25 130.92 27.25 128.42 30.3L123.22 34.65C120.52 36.15 117.32 36.95 114.02 36.95C104.02 36.95 95.5701 29.7 95.5701 18.5C95.5701 7.3 104.02 0 114.02 0ZM114.02 29.15C115.22 29.15 116.42 28.95 117.62 28.55L122.87 24.15C123.72 22.6 124.22 20.75 124.22 18.45C124.22 11.05 118.92 7.7 114.02 7.7C109.12 7.7 103.77 11.05 103.77 18.45C103.77 25.85 109.07 29.15 114.02 29.15Z" fill="#F1F2F3"/>
<path d="M120.58 34.8401C119.19 34.6001 117.86 33.9401 116.79 32.8701C114.01 30.0901 114.01 25.5701 116.79 22.7901C119.57 20.0101 124.09 20.0101 126.87 22.7901C127.94 23.8601 128.6 25.1901 128.84 26.5801H128.85C129.1 27.9701 129.76 29.2901 130.82 30.3501C131.88 31.4101 133.21 32.0701 134.59 32.3201C134.59 32.3201 134.59 32.3201 134.59 32.3301C135.98 32.5701 137.31 33.2301 138.38 34.3001C141.16 37.0801 141.16 41.6001 138.38 44.3801C135.6 47.1601 131.08 47.1601 128.3 44.3801C127.23 43.3101 126.57 41.9801 126.33 40.5901H126.32C126.07 39.2001 125.41 37.8801 124.35 36.8201C123.29 35.7601 121.96 35.1001 120.58 34.8501C120.58 34.8501 120.58 34.8501 120.58 34.8401Z" fill="#FFD600"/>
</g>
<defs>
<clipPath id="clip0_558_19130">
<rect width="300.79" height="89.28" fill="white"/>
</clipPath>
</defs>
</svg>
