<svg width="302" height="55" viewBox="0 0 302 55" fill="none" xmlns="http://www.w3.org/2000/svg">
<path d="M43.9975 0.278931C20.1925 0.278931 0.89502 19.5767 0.89502 43.3819H16.7725C16.7725 28.3668 28.9825 16.1566 43.9975 16.1566C59.0125 16.1566 71.2225 28.3668 71.2225 43.3819H87.1C87.1 19.5767 67.8025 0.278931 43.9975 0.278931Z" fill="#FFD600"/>
<path d="M105.85 15.2106H111.123V43.2759H105.85V15.2106Z" fill="#F1F2F3"/>
<path d="M132.325 31.9731V43.2682H127.165V31.3731C127.165 29.2056 125.665 27.8556 123.91 27.8556C121.78 27.8556 120.43 29.4306 120.43 31.5231V43.2682H115.27V23.7005H120.318V25.9805C121.143 24.6305 123.01 23.213 125.553 23.213C131.125 23.213 132.325 27.8181 132.325 31.9656V31.9731Z" fill="#F1F2F3"/>
<path d="M136.113 19.5905H141.198V23.708H144.865V27.9005H141.198V35.4606C141.198 38.3782 142.098 38.9782 144.078 38.9782C144.415 38.9782 144.603 38.9782 145.015 38.9407V43.3582C145.015 43.3582 144.228 43.5457 142.81 43.5457C138.13 43.5457 136.075 40.9282 136.075 35.6181V27.908H134.02V23.7155H136.113V19.598V19.5905Z" fill="#F1F2F3"/>
<path d="M155.725 23.213C161.785 23.213 165.227 27.2556 165.227 33.6531C165.227 34.0281 165.227 34.4031 165.19 34.7781H151.42C151.532 37.3957 153.625 39.2707 156.505 39.2707C159.16 39.2707 160.697 37.6957 161.26 36.8782L164.665 39.4582C163.915 40.8457 161.297 43.7632 156.437 43.7632C150.152 43.7632 146.147 39.4207 146.147 33.5481C146.147 27.6756 150.152 23.2205 155.725 23.2205V23.213ZM159.992 31.4031C159.88 29.0106 158.162 27.4356 155.8 27.4356C153.437 27.4356 151.795 29.1531 151.57 31.4031H159.985H159.992Z" fill="#F1F2F3"/>
<path d="M167.883 16.2234H173.043V43.2687H167.883V16.2234Z" fill="#F1F2F3"/>
<path d="M176.68 16.2234H181.84V43.2687H176.68V16.2234Z" fill="#F1F2F3"/>
<path d="M188.672 16.0359C190.39 16.0359 191.702 17.3109 191.702 18.9909C191.702 20.6709 190.39 21.946 188.672 21.946C186.955 21.946 185.68 20.6709 185.68 18.9909C185.68 17.3109 186.992 16.0359 188.672 16.0359ZM186.13 23.7085H191.29V43.2762H186.13V23.7085Z" fill="#F1F2F3"/>
<path d="M195.468 17.0781H203.77C208.968 17.0781 212.373 19.7707 212.373 24.0007C212.373 26.3932 211.135 28.6058 209.23 29.6483C211.698 30.6983 213.235 32.9033 213.235 35.5958C213.235 40.6809 209.08 43.2684 204.258 43.2684H195.468V17.0781ZM203.733 27.6682C205.563 27.6682 206.988 26.4307 206.988 24.6007C206.988 22.7707 205.638 21.6457 203.658 21.6457H200.74V27.6682H203.733ZM203.958 38.7384C206.088 38.7384 207.775 37.4259 207.775 35.2958C207.775 33.1658 206.095 31.9283 203.958 31.9283H200.74V38.7384H203.958Z" fill="#F1F2F3"/>
<path d="M226.713 28.4556C222.858 28.4556 221.44 30.8481 221.44 34.7406V43.2682H216.28V23.7005H221.328V26.543C222.19 24.6005 224.133 23.213 226.713 23.213V28.4481V28.4556Z" fill="#F1F2F3"/>
<path d="M231.175 16.0359C232.893 16.0359 234.205 17.3109 234.205 18.9909C234.205 20.6709 232.893 21.946 231.175 21.946C229.458 21.946 228.183 20.6709 228.183 18.9909C228.183 17.3109 229.495 16.0359 231.175 16.0359ZM228.633 23.7085H233.793V43.2762H228.633V23.7085Z" fill="#F1F2F3"/>
<path d="M256.585 43.2681H251.725V41.2506C251.2 41.8881 249.258 43.7556 245.928 43.7556C240.318 43.7556 236.35 39.5256 236.35 33.503C236.35 27.4805 240.018 23.2129 245.628 23.2129C248.995 23.2129 250.938 25.0804 251.425 25.7554V16.2153H256.585V43.2606V43.2681ZM246.558 27.7805C243.565 27.7805 241.548 30.1355 241.548 33.5405C241.548 36.9456 243.64 39.1881 246.558 39.1881C249.7 39.1881 251.568 36.6456 251.568 33.5405C251.568 29.873 249.4 27.7805 246.558 27.7805Z" fill="#F1F2F3"/>
<path d="M263.35 44.6933C263.988 45.0308 266.23 46.0433 268.923 46.0433C271.615 46.0433 274.308 45.1808 274.308 42.1507V41.2507C273.895 41.8132 271.99 43.7557 268.585 43.7557C262.938 43.7557 259.233 39.5257 259.233 33.5031C259.233 27.4806 263.2 23.213 268.773 23.213C272.065 23.213 274.045 25.0055 274.608 25.7555V23.7005H279.468V40.8007C279.468 48.0983 274.72 50.4533 268.953 50.4533C266.26 50.4533 263.53 49.6283 261.768 48.6608L263.343 44.6933H263.35ZM269.41 27.7806C266.493 27.7806 264.438 30.0231 264.438 33.4656C264.438 36.9082 266.53 39.1882 269.448 39.1882C272.365 39.1882 274.458 36.9457 274.458 33.4656C274.458 29.9856 272.44 27.7806 269.41 27.7806Z" fill="#F1F2F3"/>
<path d="M291.602 23.213C297.662 23.213 301.105 27.2556 301.105 33.6531C301.105 34.0281 301.105 34.4031 301.067 34.7781H287.297C287.41 37.3957 289.502 39.2707 292.382 39.2707C295.037 39.2707 296.575 37.6957 297.137 36.8782L300.542 39.4582C299.792 40.8457 297.175 43.7632 292.315 43.7632C286.03 43.7632 282.025 39.4207 282.025 33.5481C282.025 27.6756 286.03 23.2205 291.602 23.2205V23.213ZM295.87 31.4031C295.757 29.0106 294.04 27.4356 291.677 27.4356C289.315 27.4356 287.672 29.1531 287.447 31.4031H295.862H295.87Z" fill="#F1F2F3"/>
</svg>
